0
SECTION
2
HEADER
9
$INSUNITS
70
4
9
$ACADVER
1
AC1014
9
$HANDSEED
5
FFFF
0
ENDSEC
0
SECTION
2
TABLES
0
TABLE
2
VPORT
5
8
100
AcDbSymbolTable
0
ENDTAB
0
TABLE
2
LTYPE
5
5
100
AcDbSymbolTable
0
LTYPE
5
14
100
AcDbSymbolTableRecord
100
AcDbLinetypeTableRecord
2
BYBLOCK
70
0
0
LTYPE
5
15
100
AcDbSymbolTableRecord
100
AcDbLinetypeTableRecord
2
BYLAYER
70
0
0
ENDTAB
0
TABLE
2
LAYER
5
2
100
AcDbSymbolTable
70
2
0
LAYER
5
50
100
AcDbSymbolTableRecord
100
AcDbLayerTableRecord
2
0
70
0
6
CONTINUOUS
0
ENDTAB
0
TABLE
2
STYLE
5
3
100
AcDbSymbolTable
70
1
0
STYLE
5
11
100
AcDbSymbolTableRecord
100
AcDbTextStyleTableRecord
2
STANDARD
70
0
0
ENDTAB
0
TABLE
2
VIEW
5
6
100
AcDbSymbolTable
70
0
0
ENDTAB
0
TABLE
2
UCS
5
7
100
AcDbSymbolTable
70
0
0
ENDTAB
0
TABLE
2
APPID
5
9
100
AcDbSymbolTable
70
2
0
APPID
5
12
100
AcDbSymbolTableRecord
100
AcDbRegAppTableRecord
2
ACAD
70
0
0
ENDTAB
0
TABLE
2
DIMSTYLE
5
A
100
AcDbSymbolTable
70
1
0
ENDTAB
0
TABLE
2
BLOCK_RECORD
5
1
100
AcDbSymbolTable
70
1
0
BLOCK_RECORD
5
1F
100
AcDbSymbolTableRecord
100
AcDbBlockTableRecord
2
*MODEL_SPACE
0
BLOCK_RECORD
5
1B
100
AcDbSymbolTableRecord
100
AcDbBlockTableRecord
2
*PAPER_SPACE
0
ENDTAB
0
ENDSEC
0
SECTION
2
BLOCKS
0
BLOCK
5
20
100
AcDbEntity
100
AcDbBlockBegin
2
*MODEL_SPACE
0
ENDBLK
5
21
100
AcDbEntity
100
AcDbBlockEnd
0
BLOCK
5
1C
100
AcDbEntity
100
AcDbBlockBegin
2
*PAPER_SPACE
0
ENDBLK
5
1D
100
AcDbEntity
100
AcDbBlockEnd
0
ENDSEC
0
SECTION
2
ENTITIES
0
LWPOLYLINE
5
100
100
AcDbEntity
8
0
100
AcDbPolyline
90
4
70
1
43
0.0
10
40.640000000000128
20
64.250000000000512
10
-40.639999999999873
20
64.250000000000512
10
-40.639999999999887
20
-64.249999999999503
10
40.640000000000114
20
-64.249999999999503
0
LWPOLYLINE
5
101
100
AcDbEntity
8
0
100
AcDbPolyline
90
4
70
1
43
0.0
10
40.390000000000072
20
64.250000000000526
10
-40.38999999999993
20
64.250000000000512
10
-40.389999999999937
20
-64.249999999999659
10
40.390000000000079
20
-64.249999999999488
0
LINE
5
102
100
AcDbEntity
8
0
100
AcDbLine
10
-2.2204460492503127e-15
20
64.25
30
0
11
2.2204460492503131e-15
21
-64.25
31
0
0
LWPOLYLINE
5
103
100
AcDbEntity
8
0
100
AcDbPolyline
90
4
70
1
43
0.0
10
40.140000000000072
20
53.249999999999915
10
-40.139999999999951
20
53.249999999999915
10
-40.139999999999958
20
-53.249999999999524
10
40.140000000000065
20
-53.249999999999737
0
CIRCLE
5
104
100
AcDbEntity
8
0
100
AcDbCircle
10
-33.139999999999922
20
61.250000000000526
30
0
40
1.5000000000000009
0
CIRCLE
5
105
100
AcDbEntity
8
0
100
AcDbCircle
10
32.900000000000077
20
61.250000000000526
30
0
40
1.5000000000000002
0
LINE
5
106
100
AcDbEntity
8
0
100
AcDbLine
10
40.390000000000057
20
4.1926274572659244e-13
30
0
11
-40.139999999999972
21
2.1390296941111348e-13
31
0
0
CIRCLE
5
107
100
AcDbEntity
8
0
100
AcDbCircle
10
-33.13999999999993
20
-61.249999999999503
30
0
40
1.5000000000000013
0
CIRCLE
5
108
100
AcDbEntity
8
0
100
AcDbCircle
10
32.900000000000077
20
-61.249999999999503
30
0
40
1.4999999999999989
0
LINE
5
109
100
AcDbEntity
8
0
100
AcDbLine
10
-40.139999999999965
20
49.999999999999751
30
0
11
40.140000000000065
21
49.999999999999773
31
0
0
LINE
5
110
100
AcDbEntity
8
0
100
AcDbLine
10
-40.139999999999972
20
-50.000000000000249
30
0
11
40.140000000000065
21
-50.000000000000249
31
0
0
LINE
5
111
100
AcDbEntity
8
0
100
AcDbLine
10
-34.640000000000001
20
61.249999999999915
30
0
11
-31.640000000000001
21
61.249999999999886
31
0
0
CIRCLE
5
112
100
AcDbEntity
8
0
100
AcDbCircle
10
-34.640000000000001
20
61.250000000000043
30
0
40
1.4999999999999989
0
CIRCLE
5
113
100
AcDbEntity
8
0
100
AcDbCircle
10
-31.640000000000001
20
61.250000000000043
30
0
40
1.4999999999999978
0
LINE
5
114
100
AcDbEntity
8
0
100
AcDbLine
10
-34.640000000000015
20
62.75
30
0
11
-31.640000000000015
21
62.75
31
0
0
LINE
5
115
100
AcDbEntity
8
0
100
AcDbLine
10
31.400000000000077
20
62.750000000000519
30
0
11
34.400000000000084
21
62.750000000000519
31
0
0
LINE
5
116
100
AcDbEntity
8
0
100
AcDbLine
10
-31.639999999998388
20
59.750000000003268
30
0
11
-34.639999999998395
21
59.750000000000014
31
0
0
CIRCLE
5
117
100
AcDbEntity
8
0
100
AcDbCircle
10
31.400000000000073
20
61.250000000000526
30
0
40
1.4999999999999989
0
LINE
5
118
100
AcDbEntity
8
0
100
AcDbLine
10
31.400000000000073
20
61.250000000000526
30
0
11
34.400000000000077
21
61.250000000000526
31
0
0
CIRCLE
5
119
100
AcDbEntity
8
0
100
AcDbCircle
10
34.400000000000077
20
61.250000000000526
30
0
40
1.4999999999999978
0
LINE
5
120
100
AcDbEntity
8
0
100
AcDbLine
10
34.40000937619606
20
59.749999999329034
30
0
11
31.399999999956879
21
59.750000000000519
31
0
0
LINE
5
121
100
AcDbEntity
8
0
100
AcDbLine
10
-34.640000000000015
20
-61.250000000000156
30
0
11
-31.640000000000015
21
-61.250000000000185
31
0
0
CIRCLE
5
122
100
AcDbEntity
8
0
100
AcDbCircle
10
-34.640000000000015
20
-61.249999999999972
30
0
40
1.4999999999999989
0
CIRCLE
5
123
100
AcDbEntity
8
0
100
AcDbCircle
10
-31.640000000000015
20
-61.249999999999972
30
0
40
1.4999999999999978
0
LINE
5
124
100
AcDbEntity
8
0
100
AcDbLine
10
-34.640000000000015
20
-59.750000000000014
30
0
11
-31.640000000000015
21
-59.750000000000014
31
0
0
LINE
5
125
100
AcDbEntity
8
0
100
AcDbLine
10
31.400000000000041
20
-59.749999999999545
30
0
11
34.400000000000055
21
-59.749999999999488
31
0
0
LINE
5
126
100
AcDbEntity
8
0
100
AcDbLine
10
-31.639999999998388
20
-62.749999999996753
30
0
11
-34.639999999998395
21
-62.75
31
0
0
CIRCLE
5
127
100
AcDbEntity
8
0
100
AcDbCircle
10
31.40000000000007
20
-61.249999999999531
30
0
40
1.4999999999999989
0
LINE
5
128
100
AcDbEntity
8
0
100
AcDbLine
10
31.40000000000007
20
-61.249999999999531
30
0
11
34.400000000000084
21
-61.249999999999474
31
0
0
CIRCLE
5
129
100
AcDbEntity
8
0
100
AcDbCircle
10
34.400000000000084
20
-61.249999999999474
30
0
40
1.4999999999999978
0
LINE
5
130
100
AcDbEntity
8
0
100
AcDbLine
10
34.400003953023138
20
-62.750000000670674
30
0
11
31.399999999956897
21
-62.749999999999524
31
0
0
LINE
5
131
100
AcDbEntity
8
0
100
AcDbLine
10
-10.160000000000002
20
-64.249999999999972
30
0
11
-10.159999999999993
21
64.28206875788193
31
0
0
LINE
5
132
100
AcDbEntity
8
0
100
AcDbLine
10
-30.48
20
-63.760127669107689
30
0
11
-30.48
21
64.771941088774213
31
0
0
LINE
5
133
100
AcDbEntity
8
0
100
AcDbLine
10
29.980000000000064
20
-68.292901328224232
30
0
11
29.980000000000121
21
60.239167429657385
31
0
0
LINE
5
134
100
AcDbEntity
8
0
100
AcDbLine
10
-40.389999999999937
20
44.45000000000001
30
0
11
40.390000000000057
21
44.45000000000001
31
0
0
LINE
5
135
100
AcDbEntity
8
0
100
AcDbLine
10
-40.389999999999937
20
26.670000000000009
30
0
11
40.390000000000057
21
26.670000000000009
31
0
0
LINE
5
136
100
AcDbEntity
8
0
100
AcDbLine
10
-40.389999999999937
20
8.8900000000000023
30
0
11
40.390000000000057
21
8.8900000000000023
31
0
0
LINE
5
137
100
AcDbEntity
8
0
100
AcDbLine
10
-40.389999999999937
20
-8.8900000000000023
30
0
11
40.390000000000057
21
-8.8900000000000023
31
0
0
LINE
5
138
100
AcDbEntity
8
0
100
AcDbLine
10
-40.389999999999937
20
-26.670000000000009
30
0
11
40.390000000000057
21
-26.670000000000009
31
0
0
LINE
5
139
100
AcDbEntity
8
0
100
AcDbLine
10
-40.389999999999937
20
-44.45000000000001
30
0
11
40.390000000000057
21
-44.45000000000001
31
0
0
CIRCLE
5
140
100
AcDbEntity
8
0
100
AcDbCircle
10
-30.48
20
44.450000000000003
30
0
40
3.4999999999999982
0
CIRCLE
5
141
100
AcDbEntity
8
0
100
AcDbCircle
10
-10.16
20
44.450000000000003
30
0
40
3.4999999999999982
0
CIRCLE
5
142
100
AcDbEntity
8
0
100
AcDbCircle
10
-30.48
20
26.669999999999998
30
0
40
3.4999999999999982
0
CIRCLE
5
143
100
AcDbEntity
8
0
100
AcDbCircle
10
-10.16
20
26.669999999999998
30
0
40
3.4999999999999982
0
CIRCLE
5
144
100
AcDbEntity
8
0
100
AcDbCircle
10
-30.48
20
8.8899999999999935
30
0
40
3.4999999999999982
0
CIRCLE
5
145
100
AcDbEntity
8
0
100
AcDbCircle
10
-10.16
20
8.8899999999999935
30
0
40
3.4999999999999982
0
CIRCLE
5
146
100
AcDbEntity
8
0
100
AcDbCircle
10
-30.48
20
-8.8900000000000112
30
0
40
3.4999999999999982
0
CIRCLE
5
147
100
AcDbEntity
8
0
100
AcDbCircle
10
-10.16
20
-8.8900000000000112
30
0
40
3.4999999999999982
0
CIRCLE
5
148
100
AcDbEntity
8
0
100
AcDbCircle
10
-30.48
20
-26.670000000000016
30
0
40
3.4999999999999982
0
CIRCLE
5
149
100
AcDbEntity
8
0
100
AcDbCircle
10
-10.16
20
-26.670000000000016
30
0
40
3.4999999999999982
0
CIRCLE
5
150
100
AcDbEntity
8
0
100
AcDbCircle
10
-30.48
20
-44.450000000000017
30
0
40
3.4999999999999982
0
CIRCLE
5
151
100
AcDbEntity
8
0
100
AcDbCircle
10
-10.16
20
-44.450000000000017
30
0
40
3.4999999999999982
0
LINE
5
152
100
AcDbEntity
8
0
100
AcDbLine
10
17.280000000000065
20
-68.292901328224232
30
0
11
17.280000000000122
21
60.239167429657385
31
0
0
LINE
5
153
100
AcDbEntity
8
0
100
AcDbLine
10
4.580000000000064
20
-68.292901328224232
30
0
11
4.5800000000001218
21
60.239167429657385
31
0
0
CIRCLE
5
154
100
AcDbEntity
8
0
100
AcDbCircle
10
4.5800000000001173
20
44.45000000000001
30
0
40
2.9999999999999982
0
CIRCLE
5
155
100
AcDbEntity
8
0
100
AcDbCircle
10
17.280000000000118
20
44.45000000000001
30
0
40
2.9999999999999982
0
CIRCLE
5
156
100
AcDbEntity
8
0
100
AcDbCircle
10
29.980000000000118
20
44.45000000000001
30
0
40
2.9999999999999982
0
CIRCLE
5
157
100
AcDbEntity
8
0
100
AcDbCircle
10
4.5800000000001173
20
26.670000000000009
30
0
40
2.9999999999999982
0
CIRCLE
5
158
100
AcDbEntity
8
0
100
AcDbCircle
10
17.280000000000118
20
26.670000000000009
30
0
40
2.9999999999999982
0
CIRCLE
5
159
100
AcDbEntity
8
0
100
AcDbCircle
10
29.980000000000118
20
26.670000000000009
30
0
40
2.9999999999999982
0
CIRCLE
5
160
100
AcDbEntity
8
0
100
AcDbCircle
10
4.5800000000001173
20
8.8900000000000023
30
0
40
2.9999999999999982
0
CIRCLE
5
161
100
AcDbEntity
8
0
100
AcDbCircle
10
17.280000000000118
20
8.8900000000000023
30
0
40
2.9999999999999982
0
CIRCLE
5
162
100
AcDbEntity
8
0
100
AcDbCircle
10
29.980000000000118
20
8.8900000000000023
30
0
40
2.9999999999999982
0
CIRCLE
5
163
100
AcDbEntity
8
0
100
AcDbCircle
10
4.5800000000001173
20
-8.8900000000000023
30
0
40
2.9999999999999982
0
CIRCLE
5
164
100
AcDbEntity
8
0
100
AcDbCircle
10
17.280000000000118
20
-8.8900000000000023
30
0
40
2.9999999999999982
0
CIRCLE
5
165
100
AcDbEntity
8
0
100
AcDbCircle
10
29.980000000000118
20
-8.8900000000000023
30
0
40
2.9999999999999982
0
CIRCLE
5
166
100
AcDbEntity
8
0
100
AcDbCircle
10
4.5800000000001173
20
-26.670000000000009
30
0
40
2.9999999999999982
0
CIRCLE
5
167
100
AcDbEntity
8
0
100
AcDbCircle
10
17.280000000000118
20
-26.670000000000009
30
0
40
2.9999999999999982
0
CIRCLE
5
168
100
AcDbEntity
8
0
100
AcDbCircle
10
29.980000000000118
20
-26.670000000000009
30
0
40
2.9999999999999982
0
CIRCLE
5
169
100
AcDbEntity
8
0
100
AcDbCircle
10
4.5800000000001173
20
-44.45000000000001
30
0
40
2.9999999999999982
0
CIRCLE
5
170
100
AcDbEntity
8
0
100
AcDbCircle
10
17.280000000000118
20
-44.45000000000001
30
0
40
2.9999999999999982
0
CIRCLE
5
171
100
AcDbEntity
8
0
100
AcDbCircle
10
29.980000000000118
20
-44.45000000000001
30
0
40
2.9999999999999982
0
ENDSEC
0
SECTION
2
OBJECTS
0
DICTIONARY
5
C
100
AcDbDictionary
3
ACAD_GROUP
350
D
3
ACAD_MLINESTYLE
350
17
0
DICTIONARY
5
D
100
AcDbDictionary
0
DICTIONARY
5
1A
330
C
100
AcDbDictionary
0
DICTIONARY
5
17
100
AcDbDictionary
0
ENDSEC
0
EOF
